<svg width="91" height="71" viewBox="0 0 91 71" fill="none" xmlns="http://www.w3.org/2000/svg">
<path d="M4.75653 5.03513V12.3151H8.39653C8.8954 12.3151 9.36467 12.2221 9.80434 12.0361C10.244 11.8416 10.6287 11.5795 10.9585 11.2498C11.2882 10.92 11.5461 10.5353 11.7321 10.0956C11.9266 9.6475 12.0239 9.174 12.0239 8.67514C12.0239 8.17627 11.9266 7.707 11.7321 7.26733C11.5461 6.8192 11.2882 6.43025 10.9585 6.1005C10.6287 5.77074 10.244 5.51285 9.80434 5.32684C9.36467 5.13237 8.8954 5.03513 8.39653 5.03513H4.75653ZM4.75653 19.5825H1.11652V1.39512H8.39653C9.0645 1.39512 9.7071 1.4839 10.3243 1.66147C10.9416 1.83057 11.5165 2.07577 12.0492 2.39708C12.5904 2.70992 13.0808 3.09041 13.5204 3.53854C13.9686 3.97822 14.3491 4.46862 14.6619 5.00976C14.9832 5.5509 15.2284 6.13009 15.3975 6.74733C15.5751 7.36457 15.6639 8.00717 15.6639 8.67514C15.6639 9.30083 15.5835 9.90961 15.4229 10.5015C15.2707 11.0934 15.0466 11.6556 14.7507 12.1883C14.4632 12.721 14.1081 13.2114 13.6853 13.6595C13.2626 14.1077 12.7891 14.4966 12.2648 14.8264L14.2814 19.5825H10.4131L8.82775 15.9171L4.75653 15.9425V19.5825ZM26.8954 17.9971C26.6164 18.2508 26.3162 18.4917 25.9949 18.72C25.682 18.9399 25.3523 19.1343 25.0056 19.3034C24.659 19.4641 24.2996 19.5909 23.9276 19.6839C23.564 19.7854 23.192 19.8361 22.8115 19.8361C21.9744 19.8361 21.1881 19.6882 20.4524 19.3922C19.7168 19.0963 19.07 18.6778 18.5119 18.1366C17.9624 17.587 17.5269 16.9233 17.2056 16.1454C16.8928 15.3591 16.7363 14.4797 16.7363 13.5073V5.99903H20.1861V13.5073C20.1861 13.9639 20.2537 14.374 20.389 14.7376C20.5328 15.0927 20.723 15.3929 20.9598 15.6381C21.1965 15.8833 21.4713 16.0693 21.7841 16.1961C22.1055 16.323 22.4479 16.3864 22.8115 16.3864C23.1666 16.3864 23.5006 16.306 23.8134 16.1454C24.1347 15.9763 24.4137 15.7565 24.6505 15.4859C24.8872 15.2153 25.0733 14.9109 25.2085 14.5727C25.3438 14.226 25.4115 13.8709 25.4115 13.5073V5.99903H28.8739V19.5825H28.0368L26.8954 17.9971ZM34.2079 19.5825H30.7454V5.99903H31.5825L32.724 7.31806C33.282 6.81074 33.9119 6.4218 34.6137 6.15123C35.324 5.8722 36.0638 5.73269 36.8332 5.73269C37.6619 5.73269 38.444 5.89334 39.1796 6.21464C39.9152 6.52749 40.5578 6.96294 41.1074 7.52099C41.657 8.07058 42.0882 8.71741 42.401 9.46148C42.7223 10.1971 42.883 10.9834 42.883 11.8205V19.5825H39.4206V11.8205C39.4206 11.4654 39.3529 11.1314 39.2176 10.8186C39.0823 10.4973 38.8963 10.2182 38.6596 9.98148C38.4228 9.74473 38.148 9.55872 37.8352 9.42343C37.5223 9.28815 37.1884 9.2205 36.8332 9.2205C36.4697 9.2205 36.1272 9.28815 35.8059 9.42343C35.4846 9.55872 35.2056 9.74473 34.9688 9.98148C34.7321 10.2182 34.5461 10.4973 34.4108 10.8186C34.2755 11.1314 34.2079 11.4654 34.2079 11.8205V19.5825ZM48.0394 19.5825H44.5769V5.99903H45.414L46.5555 7.31806C47.1135 6.81074 47.7434 6.4218 48.4452 6.15123C49.1555 5.8722 49.8953 5.73269 50.6647 5.73269C51.4934 5.73269 52.2755 5.89334 53.0111 6.21464C53.7467 6.52749 54.3893 6.96294 54.9389 7.52099C55.4885 8.07058 55.9197 8.71741 56.2326 9.46148C56.5539 10.1971 56.7145 10.9834 56.7145 11.8205V19.5825H53.2521V11.8205C53.2521 11.4654 53.1844 11.1314 53.0491 10.8186C52.9139 10.4973 52.7278 10.2182 52.4911 9.98148C52.2543 9.74473 51.9795 9.55872 51.6667 9.42343C51.3539 9.28815 51.0199 9.2205 50.6647 9.2205C50.3012 9.2205 49.9587 9.28815 49.6374 9.42343C49.3161 9.55872 49.0371 9.74473 48.8004 9.98148C48.5636 10.2182 48.3776 10.4973 48.2423 10.8186C48.107 11.1314 48.0394 11.4654 48.0394 11.8205V19.5825ZM62.4924 2.3083C62.4924 2.6296 62.4289 2.92976 62.3021 3.20879C62.1837 3.48781 62.0189 3.73301 61.8075 3.9444C61.5961 4.14732 61.3467 4.3122 61.0592 4.43903C60.7802 4.55741 60.48 4.61659 60.1587 4.61659C59.8374 4.61659 59.533 4.55741 59.2455 4.43903C58.9665 4.3122 58.7213 4.14732 58.5099 3.9444C58.307 3.73301 58.1421 3.48781 58.0153 3.20879C57.8969 2.92976 57.8377 2.6296 57.8377 2.3083C57.8377 1.99545 57.8969 1.69951 58.0153 1.42049C58.1421 1.13301 58.307 0.887805 58.5099 0.684878C58.7213 0.473496 58.9665 0.308617 59.2455 0.190243C59.533 0.0634135 59.8374 -1.2368e-06 60.1587 -1.2368e-06C60.48 -1.2368e-06 60.7802 0.0634135 61.0592 0.190243C61.3467 0.308617 61.5961 0.473496 61.8075 0.684878C62.0189 0.887805 62.1837 1.13301 62.3021 1.42049C62.4289 1.69951 62.4924 1.99545 62.4924 2.3083ZM61.8963 19.5825H58.4085V5.99903H61.8963V19.5825ZM67.2302 19.5825H63.7678V5.99903H64.6048L65.7463 7.31806C66.3043 6.81074 66.9343 6.4218 67.6361 6.15123C68.3463 5.8722 69.0861 5.73269 69.8556 5.73269C70.6842 5.73269 71.4663 5.89334 72.2019 6.21464C72.9375 6.52749 73.5801 6.96294 74.1297 7.52099C74.6793 8.07058 75.1105 8.71741 75.4234 9.46148C75.7447 10.1971 75.9053 10.9834 75.9053 11.8205V19.5825H72.4429V11.8205C72.4429 11.4654 72.3753 11.1314 72.24 10.8186C72.1047 10.4973 71.9187 10.2182 71.6819 9.98148C71.4452 9.74473 71.1704 9.55872 70.8575 9.42343C70.5447 9.28815 70.2107 9.2205 69.8556 9.2205C69.492 9.2205 69.1496 9.28815 68.8283 9.42343C68.507 9.55872 68.2279 9.74473 67.9912 9.98148C67.7544 10.2182 67.5684 10.4973 67.4331 10.8186C67.2978 11.1314 67.2302 11.4654 67.2302 11.8205V19.5825ZM87.2637 12.6703C87.2637 12.1968 87.1707 11.7402 86.9847 11.3005C86.8071 10.8524 86.5619 10.4592 86.249 10.121C85.9362 9.77433 85.5684 9.49953 85.1456 9.2966C84.7313 9.08522 84.2874 8.97953 83.8139 8.97953C83.3404 8.97953 82.8923 9.05985 82.4695 9.2205C82.0552 9.38115 81.6916 9.6179 81.3788 9.93075C81.0744 10.2436 80.8334 10.6325 80.6559 11.0976C80.4783 11.5542 80.3895 12.0784 80.3895 12.6703C80.3895 13.2368 80.4783 13.7483 80.6559 14.2049C80.8334 14.653 81.0744 15.0377 81.3788 15.3591C81.6916 15.6804 82.0552 15.9298 82.4695 16.1073C82.8923 16.2765 83.3404 16.361 83.8139 16.361C84.2874 16.361 84.7313 16.2595 85.1456 16.0566C85.5684 15.8452 85.9362 15.5704 86.249 15.2322C86.5619 14.8856 86.8071 14.4924 86.9847 14.0527C87.1707 13.6046 87.2637 13.1438 87.2637 12.6703ZM90.7515 17.8703C90.7515 18.8257 90.5697 19.722 90.2061 20.5591C89.8426 21.3961 89.3437 22.1275 88.7095 22.7532C88.0838 23.3789 87.3482 23.8735 86.5027 24.2371C85.6656 24.6007 84.7694 24.7825 83.8139 24.7825L82.0764 24.7571V21.2947L83.7886 21.32C84.3297 21.32 84.7905 21.2482 85.171 21.1044C85.5515 20.9691 85.8728 20.7789 86.1349 20.5337C86.397 20.2969 86.6042 20.0221 86.7564 19.7093C86.917 19.3965 87.0438 19.0667 87.1369 18.72C87.0016 18.9399 86.8071 19.1217 86.5534 19.2654C86.2998 19.4007 86.0165 19.5106 85.7037 19.5952C85.3993 19.6882 85.078 19.7516 84.7398 19.7854C84.41 19.8192 84.1014 19.8361 83.8139 19.8361C82.8585 19.8361 81.958 19.6713 81.1125 19.3415C80.2754 19.0117 79.5398 18.5425 78.9056 17.9337C78.2799 17.3165 77.7853 16.5639 77.4217 15.6761C77.0581 14.7883 76.8763 13.7864 76.8763 12.6703C76.8763 11.6472 77.0581 10.696 77.4217 9.8166C77.7853 8.93725 78.2799 8.17627 78.9056 7.53367C79.5398 6.89107 80.2754 6.38798 81.1125 6.0244C81.958 5.66082 82.8585 5.47903 83.8139 5.47903C84.2536 5.47903 84.689 5.53399 85.1203 5.64391C85.5515 5.75383 85.97 5.90603 86.3759 6.1005C86.7817 6.29497 87.1664 6.52326 87.53 6.78538C87.9021 7.04749 88.2487 7.33074 88.57 7.63513L89.9144 6.0244H90.7515V17.8703ZM5.1497 42.5825H1.68725V32.4488H0.000420256V28.999H1.68725V28.3522C1.68725 27.5151 1.84368 26.7288 2.15652 25.9932C2.47782 25.2576 2.91327 24.6192 3.46287 24.078C4.02092 23.5285 4.66775 23.0972 5.40336 22.7844C6.13897 22.4631 6.92531 22.3024 7.76239 22.3024H10.3624V25.7522H7.76239C7.39035 25.7522 7.04369 25.8198 6.72238 25.9551C6.40954 26.082 6.13474 26.2637 5.89799 26.5005C5.6697 26.7288 5.48791 27.0036 5.35263 27.3249C5.21734 27.6377 5.1497 27.9802 5.1497 28.3522V28.999H9.39849V32.4488H5.1497V42.5825ZM23.1412 35.6703C23.1412 36.6849 22.9594 37.6319 22.5959 38.5112C22.2323 39.3821 21.7376 40.1389 21.112 40.7815C20.4863 41.4156 19.7506 41.9187 18.9051 42.2908C18.068 42.6543 17.1676 42.8361 16.2037 42.8361C15.2482 42.8361 14.3477 42.6543 13.5022 42.2908C12.6651 41.9187 11.9295 41.4156 11.2953 40.7815C10.6697 40.1389 10.175 39.3821 9.81144 38.5112C9.44787 37.6319 9.26608 36.6849 9.26608 35.6703C9.26608 34.6387 9.44787 33.6833 9.81144 32.8039C10.175 31.9246 10.6697 31.1678 11.2953 30.5337C11.9295 29.8911 12.6651 29.388 13.5022 29.0244C14.3477 28.6608 15.2482 28.479 16.2037 28.479C17.1676 28.479 18.068 28.6524 18.9051 28.999C19.7506 29.3372 20.4863 29.8234 21.112 30.4576C21.7376 31.0833 22.2323 31.84 22.5959 32.7278C22.9594 33.6072 23.1412 34.588 23.1412 35.6703ZM19.6534 35.6703C19.6534 35.1122 19.5604 34.6091 19.3744 34.161C19.1968 33.7044 18.9516 33.3155 18.6388 32.9942C18.3259 32.6644 17.9581 32.415 17.5354 32.2459C17.1211 32.0683 16.6771 31.9795 16.2037 31.9795C15.7302 31.9795 15.282 32.0683 14.8593 32.2459C14.4449 32.415 14.0814 32.6644 13.7685 32.9942C13.4641 33.3155 13.2232 33.7044 13.0456 34.161C12.868 34.6091 12.7793 35.1122 12.7793 35.6703C12.7793 36.1945 12.868 36.6807 13.0456 37.1288C13.2232 37.5769 13.4641 37.9659 13.7685 38.2956C14.0814 38.6254 14.4449 38.8875 14.8593 39.082C15.282 39.268 15.7302 39.361 16.2037 39.361C16.6771 39.361 17.1211 39.2722 17.5354 39.0947C17.9581 38.9171 18.3259 38.6677 18.6388 38.3464C18.9516 38.0251 19.1968 37.6361 19.3744 37.1795C19.5604 36.723 19.6534 36.2199 19.6534 35.6703ZM27.7396 42.5825H24.2771V28.999H25.1142L26.2556 30.6098C26.8137 30.1025 27.4478 29.7135 28.1581 29.4429C28.8683 29.1639 29.6039 29.0244 30.3649 29.0244H33.4215V32.4742H30.3649C30.0013 32.4742 29.6589 32.5418 29.3376 32.6771C29.0163 32.8124 28.7373 32.9984 28.5005 33.2351C28.2638 33.4719 28.0778 33.7509 27.9425 34.0722C27.8072 34.3935 27.7396 34.736 27.7396 35.0995V42.5825ZM15.6385 63.7181C14.793 64.4452 13.846 65.0033 12.7975 65.3922C11.7491 65.7812 10.6626 65.9756 9.538 65.9756C8.67556 65.9756 7.84271 65.8615 7.03946 65.6332C6.24466 65.4134 5.49637 65.1005 4.79458 64.6947C4.10124 64.2804 3.46709 63.7857 2.89213 63.2108C2.31717 62.6358 1.82254 62.0017 1.40823 61.3083C1.00237 60.6065 0.6853 59.8582 0.457006 59.0634C0.237169 58.2602 0.12725 57.4273 0.12725 56.5649C0.12725 55.7025 0.237169 54.8696 0.457006 54.0664C0.6853 53.2631 1.00237 52.5148 1.40823 51.8215C1.82254 51.1197 2.31717 50.4813 2.89213 49.9063C3.46709 49.3314 4.10124 48.841 4.79458 48.4351C5.49637 48.0208 6.24466 47.7037 7.03946 47.4839C7.84271 47.2556 8.67556 47.1415 9.538 47.1415C10.6626 47.1415 11.7491 47.3359 12.7975 47.7249C13.846 48.1054 14.793 48.6634 15.6385 49.399L13.7107 52.5698C13.178 51.9948 12.5481 51.5551 11.8209 51.2507C11.0938 50.9379 10.3328 50.7815 9.538 50.7815C8.73475 50.7815 7.98222 50.9337 7.28043 51.2381C6.57864 51.5424 5.96563 51.9568 5.44141 52.481C4.91718 52.9968 4.50287 53.6098 4.19848 54.32C3.89409 55.0218 3.74189 55.7701 3.74189 56.5649C3.74189 57.3597 3.89409 58.108 4.19848 58.8098C4.50287 59.5031 4.91718 60.1119 5.44141 60.6361C5.96563 61.1604 6.57864 61.5747 7.28043 61.8791C7.98222 62.1834 8.73475 62.3356 9.538 62.3356C10.3328 62.3356 11.0938 62.1834 11.8209 61.8791C12.5481 61.5662 13.178 61.1223 13.7107 60.5473L15.6385 63.7181ZM20.0719 65.5825H16.6095V46.5961H20.0719V52.5951C20.4863 52.2823 20.9133 52.0624 21.3529 51.9356C21.7926 51.8003 22.2407 51.7327 22.6973 51.7327C23.5344 51.7327 24.3207 51.8933 25.0563 52.2146C25.792 52.5275 26.4303 52.9629 26.9715 53.521C27.5211 54.0706 27.9523 54.7174 28.2651 55.4615C28.5864 56.1971 28.7471 56.9834 28.7471 57.8205V65.5825H25.2593V57.8205H25.2846C25.2846 57.4654 25.217 57.1314 25.0817 56.8186C24.9464 56.4973 24.7604 56.2182 24.5237 55.9815C24.2869 55.7447 24.0121 55.5587 23.6993 55.4234C23.3864 55.2881 23.0524 55.2205 22.6973 55.2205C22.3337 55.2205 21.9913 55.2881 21.67 55.4234C21.3487 55.5587 21.0697 55.7447 20.8329 55.9815C20.5962 56.2182 20.4102 56.4973 20.2749 56.8186C20.1396 57.1314 20.0719 57.4654 20.0719 57.8205V65.5825ZM43.5932 65.5825H42.7562L41.4118 63.7181C41.082 64.014 40.7311 64.293 40.3591 64.5552C39.9955 64.8088 39.6108 65.0329 39.2049 65.2274C38.7991 65.4134 38.3805 65.5613 37.9493 65.6713C37.5266 65.7812 37.0953 65.8361 36.6557 65.8361C35.7002 65.8361 34.7997 65.6755 33.9542 65.3542C33.1171 65.0329 32.3815 64.5678 31.7474 63.9591C31.1217 63.3418 30.627 62.5893 30.2635 61.7015C29.8999 60.8137 29.7181 59.8033 29.7181 58.6703C29.7181 57.6134 29.8999 56.6452 30.2635 55.7659C30.627 54.8781 31.1217 54.1171 31.7474 53.4829C32.3815 52.8488 33.1171 52.3584 33.9542 52.0117C34.7997 51.6566 35.7002 51.479 36.6557 51.479C37.0953 51.479 37.5308 51.534 37.962 51.6439C38.3932 51.7538 38.8118 51.906 39.2176 52.1005C39.6235 52.295 40.0082 52.5233 40.3718 52.7854C40.7438 53.0475 41.0905 53.3307 41.4118 53.6351L42.7562 52.0244H43.5932V65.5825ZM40.1054 58.6703C40.1054 58.1968 40.0124 57.7402 39.8264 57.3005C39.6488 56.8524 39.4036 56.4592 39.0908 56.121C38.7779 55.7743 38.4101 55.4995 37.9874 55.2966C37.5731 55.0852 37.1292 54.9795 36.6557 54.9795C36.1822 54.9795 35.734 55.0599 35.3113 55.2205C34.897 55.3812 34.5334 55.6179 34.2205 55.9307C33.9162 56.2436 33.6752 56.6325 33.4976 57.0976C33.3201 57.5542 33.2313 58.0784 33.2313 58.6703C33.2313 59.2621 33.3201 59.7906 33.4976 60.2556C33.6752 60.7122 33.9162 61.0969 34.2205 61.4098C34.5334 61.7226 34.897 61.9594 35.3113 62.12C35.734 62.2807 36.1822 62.361 36.6557 62.361C37.1292 62.361 37.5731 62.2595 37.9874 62.0566C38.4101 61.8452 38.7779 61.5704 39.0908 61.2322C39.4036 60.8856 39.6488 60.4924 39.8264 60.0527C40.0124 59.6046 40.1054 59.1438 40.1054 58.6703ZM48.9272 65.5825H45.4647V51.999H46.3018L47.4433 53.3181C48.0013 52.8107 48.6312 52.4218 49.333 52.1512C50.0433 51.8722 50.7831 51.7327 51.5526 51.7327C52.3812 51.7327 53.1633 51.8933 53.8989 52.2146C54.6345 52.5275 55.2771 52.9629 55.8267 53.521C56.3763 54.0706 56.8075 54.7174 57.1204 55.4615C57.4417 56.1971 57.6023 56.9834 57.6023 57.8205V65.5825H54.1399V57.8205C54.1399 57.4654 54.0722 57.1314 53.9369 56.8186C53.8017 56.4973 53.6156 56.2182 53.3789 55.9815C53.1421 55.7447 52.8674 55.5587 52.5545 55.4234C52.2417 55.2881 51.9077 55.2205 51.5526 55.2205C51.189 55.2205 50.8465 55.2881 50.5252 55.4234C50.2039 55.5587 49.9249 55.7447 49.6882 55.9815C49.4514 56.2182 49.2654 56.4973 49.1301 56.8186C48.9948 57.1314 48.9272 57.4654 48.9272 57.8205V65.5825ZM68.9607 58.6703C68.9607 58.1968 68.8677 57.7402 68.6816 57.3005C68.5041 56.8524 68.2589 56.4592 67.946 56.121C67.6332 55.7743 67.2654 55.4995 66.8426 55.2966C66.4283 55.0852 65.9844 54.9795 65.5109 54.9795C65.0374 54.9795 64.5893 55.0599 64.1665 55.2205C63.7522 55.3812 63.3886 55.6179 63.0758 55.9307C62.7714 56.2436 62.5304 56.6325 62.3528 57.0976C62.1753 57.5542 62.0865 58.0784 62.0865 58.6703C62.0865 59.2368 62.1753 59.7483 62.3528 60.2049C62.5304 60.653 62.7714 61.0377 63.0758 61.3591C63.3886 61.6804 63.7522 61.9298 64.1665 62.1073C64.5893 62.2765 65.0374 62.361 65.5109 62.361C65.9844 62.361 66.4283 62.2595 66.8426 62.0566C67.2654 61.8452 67.6332 61.5704 67.946 61.2322C68.2589 60.8856 68.5041 60.4924 68.6816 60.0527C68.8677 59.6046 68.9607 59.1438 68.9607 58.6703ZM72.4485 63.8703C72.4485 64.8257 72.2667 65.722 71.9031 66.5591C71.5395 67.3961 71.0407 68.1275 70.4065 68.7532C69.7808 69.3789 69.0452 69.8735 68.1997 70.2371C67.3626 70.6007 66.4664 70.7825 65.5109 70.7825L63.7733 70.7571V67.2947L65.4855 67.32C66.0267 67.32 66.4875 67.2482 66.868 67.1044C67.2485 66.9691 67.5698 66.7789 67.8319 66.5337C68.094 66.2969 68.3012 66.0221 68.4533 65.7093C68.614 65.3965 68.7408 65.0667 68.8338 64.72C68.6986 64.9399 68.5041 65.1217 68.2504 65.2654C67.9968 65.4007 67.7135 65.5106 67.4007 65.5952C67.0963 65.6882 66.775 65.7516 66.4368 65.7854C66.107 65.8192 65.7984 65.8361 65.5109 65.8361C64.5555 65.8361 63.655 65.6713 62.8094 65.3415C61.9724 65.0117 61.2367 64.5425 60.6026 63.9337C59.9769 63.3165 59.4823 62.5639 59.1187 61.6761C58.7551 60.7883 58.5733 59.7864 58.5733 58.6703C58.5733 57.6472 58.7551 56.696 59.1187 55.8166C59.4823 54.9373 59.9769 54.1763 60.6026 53.5337C61.2367 52.8911 61.9724 52.388 62.8094 52.0244C63.655 51.6608 64.5555 51.479 65.5109 51.479C65.9506 51.479 66.386 51.534 66.8172 51.6439C67.2485 51.7538 67.667 51.906 68.0729 52.1005C68.4787 52.295 68.8634 52.5233 69.227 52.7854C69.599 53.0475 69.9457 53.3307 70.267 53.6351L71.6114 52.0244H72.4485V63.8703ZM79.7229 62.2595C79.8582 62.3018 79.9935 62.3314 80.1288 62.3483C80.264 62.3568 80.3993 62.361 80.5346 62.361C80.8728 62.361 81.1984 62.3145 81.5112 62.2215C81.8241 62.1285 82.1158 61.9974 82.3863 61.8283C82.6654 61.6508 82.9106 61.4394 83.1219 61.1942C83.3418 60.9405 83.5193 60.6615 83.6546 60.3571L86.1912 62.9064C85.8699 63.363 85.4979 63.773 85.0751 64.1366C84.6608 64.5002 84.2084 64.8088 83.718 65.0625C83.2361 65.3161 82.7245 65.5064 82.1834 65.6332C81.6507 65.7685 81.1011 65.8361 80.5346 65.8361C79.5792 65.8361 78.6787 65.6586 77.8332 65.3034C76.9961 64.9483 76.2605 64.4537 75.6263 63.8195C75.0006 63.1854 74.506 62.4329 74.1424 61.562C73.7788 60.6826 73.597 59.7187 73.597 58.6703C73.597 57.5964 73.7788 56.6156 74.1424 55.7278C74.506 54.84 75.0006 54.0833 75.6263 53.4576C76.2605 52.8319 76.9961 52.3457 77.8332 51.999C78.6787 51.6524 79.5792 51.479 80.5346 51.479C81.1011 51.479 81.6549 51.5467 82.1961 51.682C82.7372 51.8172 83.2488 52.0117 83.7307 52.2654C84.2211 52.519 84.6777 52.8319 85.1005 53.2039C85.5232 53.5675 85.8953 53.9776 86.2166 54.4342L79.7229 62.2595ZM81.4985 55.119C81.3379 55.0599 81.1772 55.0218 81.0166 55.0049C80.8644 54.988 80.7037 54.9795 80.5346 54.9795C80.0611 54.9795 79.613 55.0683 79.1902 55.2459C78.7759 55.415 78.4123 55.6602 78.0995 55.9815C77.7951 56.3028 77.5541 56.6917 77.3766 57.1483C77.199 57.5964 77.1102 58.1038 77.1102 58.6703C77.1102 58.7971 77.1144 58.9408 77.1229 59.1015C77.1398 59.2621 77.161 59.427 77.1863 59.5961C77.2201 59.7568 77.2582 59.9132 77.3005 60.0654C77.3427 60.2176 77.3977 60.3529 77.4653 60.4712L81.4985 55.119Z" fill="white"/>
</svg>
